<?xml version="1.0" encoding="utf-8"?>
<svg version="1.0" id="Layer_1" xmlns="http://www.w3.org/2000/svg" xmlns:xlink="http://www.w3.org/1999/xlink" x="0px" y="0px"
	 width="16px" height="16px" viewBox="0 0 16 16" enable-background="new 0 0 16 16" xml:space="preserve">
<path fill="none" stroke="#3574F0" stroke-width="1.2" stroke-miterlimit="133.3333" d="M8.8,9.3h-3c-1.2,0-2.2,0.9-2.3,2l0,0
	C3.2,12.9,4.5,14.2,6,14l0.4-0.1c1.3-0.2,2.3-1.3,2.3-2.6V4.5c0-1.2,0-1.8,0.3-2.2C9.5,2,10,1.9,11.2,1.7l1.7-0.3c0.1,0,0.1,0,0.2,0
	c0,0,0,0.1,0,0.2l-0.6,2.6c0,0,0,0.1,0,0.1c0,0,0,0-0.1,0L8.8,5"/>
</svg>
