<?xml version="1.0" encoding="utf-8"?>
<svg version="1.0" id="Layer_1" xmlns="http://www.w3.org/2000/svg" xmlns:xlink="http://www.w3.org/1999/xlink" x="0px" y="0px"
	 width="16px" height="16px" viewBox="0 0 16 16" enable-background="new 0 0 16 16" xml:space="preserve">
<path fill="#EBECF0" stroke="#6C707E" stroke-width="0.8" stroke-miterlimit="133.3333" d="M2.1,9.2c-0.5-0.8-0.5-1.7,0-2.5l0,0
	c0.1-0.2,0.4-0.4,0.6-0.4l1.1-0.2C3.9,6.1,4,6.1,4,6l1.3-1.6C6.1,3.5,6.5,3,6.8,3.2c0.3,0.1,0.3,0.7,0.3,1.9V11c0,1.2,0,1.8-0.3,1.9
	c-0.3,0.1-0.7-0.3-1.5-1.2L4,10c0-0.1-0.1-0.1-0.2-0.1l-1-0.2C2.5,9.6,2.3,9.5,2.1,9.2L2.1,9.2z" />
<path fill="none" stroke="#6C707E" stroke-width="0.8" stroke-linecap="round" stroke-miterlimit="133.3333" d="M10.1,5.7
	C10.7,6.3,11,7.1,11,8c0,0.8-0.3,1.7-0.9,2.3"/>
<path fill="none" stroke="#6C707E" stroke-width="0.8" stroke-linecap="round" stroke-miterlimit="133.3333" d="M12.7,4.4
	c1,1,1.5,2.3,1.5,3.6c0,1.4-0.5,2.7-1.5,3.6"/>
</svg>
